inDegrees=no
num_controls=7
num_derivatives=13
num_iterations=147
num_multipliers=7
num_parameters=0
num_slacks=7
num_states=26
objective=5.603469
objective_accelerations=0.606636
objective_balance=0.014184
objective_effort=0.456503
objective_height=4.479096
objective_ligament=0.047051
solver_duration=1314.102721
status=Solve_Succeeded
success=true
DataType=double
version=3
OpenSimVersion=4.4-2022-07-23-0e9fedc
endheader
time	/jointset/ground_pelvis/pelvis_tilt/value	/jointset/ground_pelvis/pelvis_tx/value	/jointset/ground_pelvis/pelvis_ty/value	/jointset/hip_r/hip_flexion_r/value	/jointset/hip_r/hip_adduction_r/value	/jointset/hip_r/hip_rotation_r/value	/jointset/back/lumbar_extension/value	/jointset/patellofemoral_r/patellar_flexion_r/value	/jointset/knee_r/knee_flexion_r/value	/jointset/knee_r/knee_adduction_r/value	/jointset/knee_r/knee_rotation_r/value	/jointset/ankle_r/ankle_angle_r/value	/jointset/subtalar_r/subtalar_angle_r/value	/jointset/ground_pelvis/pelvis_tilt/speed	/jointset/ground_pelvis/pelvis_tx/speed	/jointset/ground_pelvis/pelvis_ty/speed	/jointset/hip_r/hip_flexion_r/speed	/jointset/hip_r/hip_adduction_r/speed	/jointset/hip_r/hip_rotation_r/speed	/jointset/back/lumbar_extension/speed	/jointset/patellofemoral_r/patellar_flexion_r/speed	/jointset/knee_r/knee_flexion_r/speed	/jointset/knee_r/knee_adduction_r/speed	/jointset/knee_r/knee_rotation_r/speed	/jointset/ankle_r/ankle_angle_r/speed	/jointset/subtalar_r/subtalar_angle_r/speed	/forceset/tau_hip_flexion_r	/forceset/tau_hip_adduction_r	/forceset/tau_hip_rotation_r	/forceset/tau_knee_flexion_r	/forceset/tau_ankle_angle_r	/forceset/tau_subtalar_angle_r	/forceset/tau_lumbar_extension	lambda_cid13_p0	lambda_cid14_p0	lambda_cid14_p1	lambda_cid14_p2	lambda_cid14_p3	lambda_cid14_p4	lambda_cid14_p5	/jointset/ground_pelvis/pelvis_tilt/accel	/jointset/ground_pelvis/pelvis_tx/accel	/jointset/ground_pelvis/pelvis_ty/accel	/jointset/hip_r/hip_flexion_r/accel	/jointset/hip_r/hip_adduction_r/accel	/jointset/hip_r/hip_rotation_r/accel	/jointset/back/lumbar_extension/accel	/jointset/patellofemoral_r/patellar_flexion_r/accel	/jointset/knee_r/knee_flexion_r/accel	/jointset/knee_r/knee_adduction_r/accel	/jointset/knee_r/knee_rotation_r/accel	/jointset/ankle_r/ankle_angle_r/accel	/jointset/subtalar_r/subtalar_angle_r/accel	gamma_cid13_p0	gamma_cid14_p0	gamma_cid14_p1	gamma_cid14_p2	gamma_cid14_p3	gamma_cid14_p4	gamma_cid14_p5
1	-0.228817201348694	-0.01260528629482412	0.6347772040468327	1.424858308528753	-0.2385774036467188	-0.08715701522113321	-0.7853980803076031	1.512765890454287	1.512765890454316	-0.1745327965661111	0.1745304771625213	0.4362361900159435	0.1752640200185813	0.07018174191300058	0.005797238381026811	0.0155027272291342	-0.1020585076955762	-0.001185283124953239	-0.002328554116999033	-0.0001095961224746673	-0.01717992655042001	-0.01717992655041975	0.00379066027042832	-0.0002806258378165602	0.01470512700874732	0.005380109689358517	-0.3300961224193113	0.01885451047369356	0.01042569327033067	-0.4652868081179515	-0.01870753409767503	0.01122254308008769	0.3559981351779983	-0.04101992809251663	-57.05403194203794	-7.735705095193599	4.647781444492428	7.202437626578587	-769.6047919047163	76.69639424158704	1.224306869530685	0.1488525588503667	1.829332131022312	-5.425642343470284	0.2588729431512174	-0.5839670811065569	-0.01551558574105778	-5.066092216382655	-5.066092216382724	0.7043251226803616	-0.01944206314795325	-1.020497078128967	-0.02155656754803274	1.398838524797351e-09	1.483125341508693e-09	1.167887017481789e-08	9.005757319871818e-09	-4.297873099381912e-10	-5.172385960373237e-09	2.098806877101971e-08
1.01	-0.2280550920506412	-0.01253978075730769	0.6350235421437107	1.4235674984395	-0.238576416509636	-0.08720665246626148	-0.7853981113166913	1.512341249622514	1.512341249622535	-0.174456737452847	0.1745264462229814	0.4363322556143662	0.1753164950769402	0.08220978819456654	0.007315915929032297	0.03376148564712297	-0.1560827605442947	0.001374991806690002	-0.007562268864038213	0.0002160926710078501	-0.06774538808509674	-0.067745388085097	0.01146921306608703	-0.0005169474929858482	0.004515020704531143	0.00510266684303805	-0.3302975929226882	0.0188802937526728	0.01049969044234044	-0.4653931179877294	-0.01871101339173276	0.01120726756019761	0.3564825044597005	-0.04102084775418975	-57.07258583296611	-7.748365657621305	4.652972946192762	7.060389424329746	-769.9301163706803	76.70779255319492	1.187505911958127	0.15518182370291	1.823634254988076	-5.38770268277614	0.2534521582235708	-0.4875772956201199	0.0735158581733486	-5.051346513474358	-5.051346513474453	0.8068278583674466	-0.02442379253914365	-1.017213380528505	-0.03266263551664196	5.703666473171891e-09	7.4771778730885e-09	3.832653789821177e-08	4.007195136344141e-08	-2.728345849111818e-09	-1.226489720621081e-08	7.836874522037911e-08
1.02	-0.2271736118088744	-0.01245872715012591	0.6354523651363287	1.421737068636295	-0.2385500571452346	-0.08730752758365051	-0.7853915044882945	1.511411039497102	1.511411039497127	-0.1743024513115554	0.1745203127517704	0.4363266309551691	0.175365830808367	0.0940559306556645	0.008906852314096983	0.05199970637714235	-0.2099824504811668	0.003889162340421498	-0.01257612857577801	0.001217971315686315	-0.1182937852783398	-0.1182937852783403	0.01943606587609779	-0.0007011321816629757	-0.005632924558104263	0.004752244303014903	-0.3304990634261863	0.0189060770317071	0.01057368761437962	-0.4654994278575069	-0.01871449268575345	0.01119199204042936	0.3569668737412928	-0.04102935409913677	-57.09886891924155	-7.758694187907037	4.653582691610573	6.921227439454579	-770.3789491378452	76.75166753319395	1.187926105437046	0.1633043262622859	1.825224593428435	-5.400729761101062	0.2496520635688087	-0.5399960740467592	0.1197223844966309	-5.06267934809587	-5.062679348095894	0.7619851255507541	-0.009014669849412909	-1.012064869812662	-0.03615250628860175	1.160036167611386e-08	1.611302004283436e-08	7.054495844702719e-08	8.366703028565545e-08	-6.84685565503789e-09	-1.969748434688672e-08	1.533815344991467e-07
1.03	-0.2261747096497639	-0.01236138705389114	0.6360634310667973	1.419368445005401	-0.2384987804161623	-0.08745751063946265	-0.7853706389157831	1.509975357696122	1.509975357696135	-0.1740671066881457	0.1745126069726554	0.4362196094618398	0.1754112429534842	0.1056801800908065	0.01057494609727934	0.07020641576651951	-0.26370292719185	0.006359792099312686	-0.01739109541690503	0.00315523581911376	-0.168847333754066	-0.1688473337540671	0.0276744175203338	-0.0008324943408248987	-0.01577688730712828	0.004314044683565528	-0.3314117136054383	0.01911327967251729	0.01065690222712298	-0.4648528027114445	-0.01973334594243748	0.01121856881124521	0.3581208399649405	-0.0410477901389517	-57.46200099948816	-7.792644712691828	4.638333572476248	7.021390717590522	-771.0085714891518	76.68674131514167	1.143031633231953	0.170626557189995	1.817329047410135	-5.351799296747478	0.2448262023325161	-0.4478291743585622	0.260742376720754	-5.052409961248689	-5.052409961248757	0.8609915770076111	-0.01403296760732073	-1.016388726814253	-0.05004339163117746	1.751330042246979e-08	2.477581924970439e-08	1.028202234124286e-07	1.273899549719373e-07	-1.098393639225737e-08	-2.713354164975486e-08	2.285742432965818e-07
1.04	-0.2250608935421695	-0.01224695308925585	0.6368563510783031	1.41646379807325	-0.2384229858354497	-0.08765475980070739	-0.7853243979194897	1.508033996937597	1.508033996937605	-0.1737481322696782	0.1745038203762319	0.4360109829911309	0.1754517951620351	0.1170387203531163	0.01232562599419982	0.08837052258461246	-0.3171871107303563	0.008792732669523023	-0.02202934966654799	0.006293056060739297	-0.2194295767873002	-0.2194295767873017	0.03616202489047472	-0.0009172956462955565	-0.02595392003083174	0.003780256989792946	-0.332324363784733	0.01932048231336127	0.01074011683991333	-0.464206177565379	-0.02075219919910485	0.01124514558213207	0.3592748061885485	-0.04107378671611327	-57.83291588455835	-7.823992491214808	4.618139588227	7.122730792897349	-771.7644530207585	76.65541553608499	1.13478427087062	0.179821549009926	1.816704079171597	-5.353471126665661	0.2421142258325883	-0.5046535557500038	0.3598335321360471	-5.06841825959744	-5.06841825959744	0.8118362707317479	0.00029750088896233	-1.018678864748532	-0.05527012115332836	2.305148774857912e-08	3.387069994316409e-08	1.334822170017105e-07	1.700770360680724e-07	-1.68241481576361e-08	-3.292404967984691e-08	2.997802891273796e-07
1.05	-0.2238347393126955	-0.01211457488626475	0.6378306052104233	1.413025611798511	-0.2383230715288658	-0.08789753382036251	-0.7852410946876937	1.505586859294017	1.50558685929403	-0.1733430944285774	0.1744944296242277	0.4357004075503213	0.1754864844176099	0.1281530473621053	0.01416623201405338	0.1064635361651237	-0.3703957431683769	0.01118288944101621	-0.02649626632082368	0.01053946284853541	-0.2699837604988403	-0.2699837604988399	0.04488182281004905	-0.0009553849788746853	-0.03616789880205989	0.00313920355745753	-0.3325804707869014	0.01942332363016088	0.01089379118086351	-0.4634468079728523	-0.02124396918662649	0.01124277206142242	0.3598827226225655	-0.04110459248153925	-57.99414826983968	-7.834816626264898	4.598805618934538	7.078575125860179	-771.9103336164662	76.61623634815571	1.093903892790558	0.1886081369504933	1.803077055741092	-5.296390889303982	0.2364079825303408	-0.4133155324459359	0.4828251342630331	-5.046795483853958	-5.04679548385366	0.9074888077681876	-0.004984435493773633	-1.023766099546595	-0.07123052241085868	2.857796409280574e-08	4.297908318307973e-08	1.640937958604887e-07	2.127317470520154e-07	-2.271758276764481e-08	-3.866313429516471e-08	3.708617517404698e-07
1.06	-0.2224986124177584	-0.01196330502137963	0.638985284889999	1.40905697288202	-0.238199467338623	-0.08818409796898631	-0.785110171211575	1.502634604401937	1.502634604401945	-0.1728497711572495	0.1744848335218649	0.4352874905785486	0.1755142216252337	0.1390332534462027	0.01610395837300313	0.1244556320756627	-0.4232776390837404	0.01353070940141285	-0.0307873754622834	0.01581710492279984	-0.3204530264872474	-0.3204530264872451	0.05381911093754222	-0.0009583657179503698	-0.04642222622275444	0.00238984739963311	-0.3328365777889847	0.01952616494697701	0.01104746552185802	-0.4626874383803183	-0.02173573917415747	0.01124039854073811	0.3604906390566613	-0.04114302634019512	-58.16320473558662	-7.842851143657703	4.574275279185954	7.034839933069186	-772.1843725971329	76.61147775900852	1.087960085892301	0.1992456168291687	1.796520545177157	-5.288123822134247	0.2336468636132352	-0.4694920531868518	0.5660805894296475	-5.051434714970852	-5.05143471497083	0.8553343123155343	0.007319219589758395	-1.026748594641803	-0.07693066625120779	3.368472128989915e-08	5.074314545758863e-08	1.913280075725031e-07	2.521739124328165e-07	-2.696657902948262e-08	-4.441553481018352e-08	4.340359632095236e-07
1.07	-0.2210547317751529	-0.01179215014124161	0.6403193240316555	1.404561147804971	-0.2380526149497907	-0.08851279874078623	-0.7849214555331209	1.4991781634185	1.499178163418506	-0.1722660959988136	0.1744754013829946	0.4347717902210406	0.1755338725354772	0.1497137679500837	0.01814546281737696	0.1423295700039691	-0.4758310869735129	0.01583191292251803	-0.03492717092274163	0.02208674169982387	-0.370812595478155	-0.3708125954781531	0.06294667174936025	-0.0009240324577389287	-0.05672817963337125	0.001519121504375446	-0.3327942081342804	0.01960176728945903	0.01125389288755681	-0.4616529025528235	-0.02212553832145146	0.0112272447743865	0.3608556733138157	-0.04118774445638768	-58.27393999112974	-7.843286961701126	4.546170687590137	6.960835078986229	-772.070194064483	76.57210648453754	1.053742774774507	0.2093633482033558	1.779426363818409	-5.230500717826793	0.2272164714162048	-0.3823582241680213	0.6815118614542264	-5.02483960858203	-5.024839608582091	0.946072986527508	0.002172647233838929	-1.034067539443522	-0.09525668131497993	3.876915300044293e-08	5.843570129776739e-08	2.183825720958597e-07	2.914451977283441e-07	-3.112810516641771e-08	-5.01686436177396e-08	4.96789576213469e-07
1.08	-0.2195049168590829	-0.01160002811866746	0.6418314217420275	1.399541479159953	-0.2378829786507354	-0.08888212445352896	-0.7846652221589682	1.495218802421668	1.495218802421667	-0.1715902240280855	0.1744664490303158	0.4341527205643919	0.1755441935607374	0.160220108139513	0.02029738686022713	0.1600673458187347	-0.5280463526804006	0.01808749144590905	-0.03891236365090991	0.02932064406146916	-0.4210370291663155	-0.4210370291663141	0.07225847339768481	-0.0008624084776475084	-0.06709608605086509	0.0005238704030398129	-0.3327518384794969	0.01967736963193581	0.0114603202533233	-0.460618366725319	-0.02251533746875999	0.01121409100801617	0.3612207075710426	-0.04124012565976692	-58.39259237685745	-7.840786752124381	4.512660538161704	6.886265613646049	-772.0870082436146	76.56773284392175	1.053125223001935	0.2213295365244417	1.769288122469003	-5.220487385557277	0.2245218640703673	-0.4385715067288947	0.7589337063538631	-5.024407654421423	-5.024407654421427	0.8921824796168566	0.01277736356584164	-1.039139196017207	-0.101835707466866	4.306799482634129e-08	6.496639298498494e-08	2.404802228129039e-07	3.256539373739551e-07	-3.477461901227232e-08	-5.465333946018164e-08	5.478661801620256e-07
1.09	-0.2178508952143664	-0.01138581499505164	0.6435201328476869	1.394001497977547	-0.2376910373564613	-0.08929064385179232	-0.7843319102727382	1.490757997057892	1.490757997057895	-0.170820439011528	0.1744582694959154	0.4334296249768333	0.1755438826135036	0.1705539283068254	0.02256563482292174	0.17764367855602	-0.5798763133254536	0.02029199398959272	-0.04276682258548177	0.03749748196477711	-0.4710885048090453	-0.4710885048090452	0.08172548107376652	-0.0007712586180213851	-0.07753677737296784	-0.0006104653259736307	-0.3322932956123018	0.01968289509010782	0.01172022740598086	-0.4593450789948591	-0.02268525406248458	0.01119278833283286	0.3612407969796137	-0.04129887423382105	-58.40871128313496	-7.821685383974782	4.474005631695353	6.750081201296285	-771.63321416061	76.54541298366667	1.018980694993464	0.2326242281816953	1.74711444769631	-5.153201306601615	0.2171450221946638	-0.3551489946643554	0.8704211493105335	-4.990196240713979	-4.990196240714162	0.9779943775975783	0.007714966982453623	-1.048594247467917	-0.1228096274916416	4.730706350884273e-08	7.140868196491196e-08	2.622007170446852e-07	3.594774833288117e-07	-3.838194714032733e-08	-5.904152562049545e-08	5.980543160302809e-07
